<svg viewBox="0 0 282 66" xmlns="http://www.w3.org/2000/svg" role="img" aria-labelledby="tnyLogo"><title id="tnyLogo">The New Yorker</title><g fill="none" fill-rule="evenodd"><path fill="#121212" d="M.4 24.6h4.8L25.4 50V24.5h3V64l-25-31.8v31.4h-3zm33.4 0h14.5l2 4.5s-2.4-2.3-7-2.3H40v13.8h5.7c3 0 3.5-.4 4.6-1.5v5.8s-1.3-2-4.6-2H40v18h8c8 0 12-3 12-3l-3 5.8H33.8v-39zm200.5 0h16l2 4.5s-2.2-2.3-7-2.3h-5.4v13.8h6.2c2.4 0 3-.2 4-1V44s-.7-1.4-4-1.4H240V61h3.8c7 0 9.6-2 9.6-2l-3.5 4.6h-15.7v-39zM52 24.6h6.2L71.4 53l2.7-5.8-10-22.6h5.8L77 39.8l7-15.2h3L79 44l4.3 9L96 24.7h3.5L81.8 64l-6-13-6 13zm102.3-1.4c13.7 0 22 9.5 22 20 0 13.6-7.5 22.2-21.6 22.2-14.2 0-22.6-10.5-22.6-21 0-11.8 9-21.2 22.3-21.2zM138 43.5c0 9.2 5.2 19.2 17 19.2 11 0 15.3-9 15.3-19 0-8-5.5-18.2-16.3-18.2-7.4 0-16 5.8-16 18zm43-19h9c5 0 9 2.8 9 8 0 6-4.4 7.7-7.5 8.7 5.6 1 7.7 3.6 7.7 11 0 7.5 2 10.2 3.6 10.2 1.3 0 2.4-.8 2.7-1.4l.8.5c-.3.4-1.8 2.8-5.4 2.8s-6.5-3.3-6.5-11c0-11.3-3-11.5-5.5-11.5V41s5.2-1.2 5.2-7.5c0-6-3.6-6.8-5-6.8h-2.7v37h-5.8l.2-39zm75 0h9.2c5 0 9 2.8 9 8 0 6-4.5 7.7-7.6 8.7 5.6 1 7.7 3.6 7.7 11 0 7.5 2 10.2 3.6 10.2 1.2 0 2.3-.8 2.6-1.4l.8.5c-.3.4-1.8 2.8-5.4 2.8s-6.4-3.3-6.4-11c0-11.3-3-11.5-5.5-11.5V41c.2 0 5.3-1.2 5.3-7.5 0-6-3.6-6.8-5-6.8h-2.7v37h-5.8l.2-39zm-31 27.6c0 7.6 1.8 10.3 3.6 10.3 1.3 0 2.3-1 2.7-1.4l.8.4c-.2.3-1.7 2.7-5.4 2.7-3.6 0-6.3-3-6.3-11v-1.5c0-4.6-.3-8.2-1-10.5-.7-2-3-3.3-4-3.3h-1v25.8h-5.8v-39h5.7v11.4l10.3-11.6h3.7l-11 12.2c5.7 1 7.7 5 7.7 14V52zM135.5.4h3v7h7v-7h3v16.3h-3v-8h-7v8h-3zm18.6 0h7.6l1 2.4s-1.6-1-3-1h-2.7v5.6h2.6c1.4 0 1.8-.6 1.8-.6v2.6s-.4-.8-1.8-.8H157v7h3.6c2.7 0 3.8-1.4 3.8-1.4l-1.3 2.7h-9V.3h.2zM126 1.6h1.4c2.5 0 4.5 1.7 4.5 1.7l-1-3h-13.5l-1 3s2-1.7 4.6-1.7h1.7v15h3v-15h.2z"></path><path fill="#000" d="M124 63.6V43.4l11-18.8h-3.6l-10.4 18-10.5-18H107l11 18.8v20.2z"></path></g></svg>
