<svg width="19" height="15" viewBox="0 0 19 15" xmlns="http://www.w3.org/2000/svg"><path d="M18.223 1.739c-.654.295-1.3565.4943-2.094.584.7527-.459 1.3308-1.1858 1.603-2.0518-.7045.425-1.4847.7336-2.3152.9C14.7518.4504 13.8043 0 12.7558 0c-2.0137 0-3.646 1.6605-3.646 3.7084 0 .2908.032.5737.0943.8452-3.03-.1547-5.7164-1.631-7.5146-3.8748-.3138.5478-.4936 1.1848-.4936 1.8644 0 1.2866.6436 2.4217 1.622 3.0868-.5977-.0192-1.16-.186-1.6515-.464l-.0003.0468c0 1.7968 1.2567 3.2957 2.9246 3.6364-.306.0847-.628.13-.9605.13-.235 0-.4632-.0232-.686-.0665.464 1.4733 1.8105 2.5455 3.406 2.5755-1.248.9946-2.82 1.5875-4.528 1.5875-.2943 0-.5845-.0176-.8698-.0518 1.6136 1.052 3.53 1.666 5.5888 1.666 6.706 0 10.3733-5.651 10.3733-10.5515 0-.1608-.0036-.3208-.0106-.4798.7123-.5228 1.3304-1.176 1.8192-1.9197" fill="#000" fill-rule="evenodd"></path></svg>
